Coordinates
version=1
nRows=14
nColumns=42
inDegrees=yes

Units are S.I. units (second, meters, Newtons, ...)
If the header above contains a line with 'inDegrees', this indicates whether rotational values are in degrees (yes) or radians (no).

endheader
time	pelvis_tilt	pelvis_list	pelvis_rotation	pelvis_tx	pelvis_ty	pelvis_tz	hip_flexion_r	hip_adduction_r	hip_rotation_r	knee_angle_r	knee_angle_r_beta	ankle_angle_r	subtalar_angle_r	mtp_angle_r	hip_flexion_l	hip_adduction_l	hip_rotation_l	knee_angle_l	knee_angle_l_beta	ankle_angle_l	subtalar_angle_l	mtp_angle_l	lumbar_extension	lumbar_bending	lumbar_rotation	sh_tx_r	sh_ty_r	sh_tz_r	sh_plane_elev_r	sh_elev_r	sh_axial_rot_r	elbow_flex_r	pro_sup_r	sh_tx_l	sh_ty_l	sh_tz_l	sh_plane_elev_l	sh_elev_l	sh_axial_rot_l	elbow_flex_l	pro_sup_l
      0.91666670	      1.08014400	     -1.88612261	     -0.79272728	     -2.58530573	      1.13826506	      0.18244859	     -5.40041842	      7.25933118	      5.79823021	      0.39077889	      0.00682038	    -11.34180860	    -13.32531690	     -7.49999987	     12.70931324	     -3.07497633	     -3.49337219	     54.45455836	      0.95041134	      0.02462127	    -25.13553112	     -7.49999987	    -15.17097154	      2.16766576	      3.03904397	     -0.03929003	     -0.01360813	     -0.00739418	    -40.94783587	      9.41966976	     32.59875251	     53.79938542	    108.68724609	     -0.04002579	     -0.00986501	     -0.00726783	     15.11072442	      0.49254565	    -14.58945438	     21.81177106	     39.48551504
      0.93333330	      1.12684669	     -1.17983541	     -0.73896228	     -2.57709399	      1.13834410	      0.18356584	     -6.60220467	      6.35590371	      5.09660896	      0.35677674	      0.00622693	     -9.46337240	    -11.85065237	     -7.49999987	     16.07811719	     -2.31346695	     -3.03889936	     54.44133608	      0.95018056	     -2.18435914	    -27.33052551	     -7.49999987	    -15.24715940	      1.21992853	      3.74305186	     -0.04021729	     -0.01280175	     -0.00729907	    -36.93715946	      8.37089321	     28.52932070	     54.58441430	    108.53804550	     -0.04087544	     -0.00942158	     -0.00703703	     13.51489851	      0.56754177	    -13.49333306	     19.07975338	     38.36587700
      0.95000000	      0.90936559	     -0.71085098	     -0.74206346	     -2.56077183	      1.13828891	      0.18412945	     -7.45667232	      5.68845417	      4.41160702	      0.30448293	      0.00531423	     -7.75797155	    -10.32954564	     -7.49999987	     19.33950246	     -1.74010218	     -2.52695034	     53.66336876	      0.93660247	     -4.99923977	    -29.71828408	     -7.49999987	    -14.98050148	      0.58209898	      5.25239347	     -0.04101668	     -0.01233555	     -0.00726228	    -36.81055993	      7.77785295	     27.21579448	     56.25917586	    108.23209750	     -0.04140147	     -0.00944027	     -0.00678245	     13.69354857	      0.63979307	    -13.41039099	     16.47048043	     38.34248093
      0.96666670	      0.50703774	     -0.32808718	     -0.86531243	     -2.54273176	      1.13818341	      0.18450303	     -7.95655721	      5.10408294	      3.49342459	      0.25308697	      0.00441720	     -5.73418161	     -8.29126810	     -7.49999987	     22.44447919	     -1.26119033	     -2.09060569	     52.06087072	      0.90863361	     -7.54814846	    -31.08379523	     -7.49999987	    -14.35078977	      0.05673938	      6.01590049	     -0.04005903	     -0.01024273	     -0.00696759	    -30.10385350	      6.66102853	     20.31031928	     56.50575239	    108.72584815	     -0.03921368	     -0.00916557	     -0.00673919	     11.36526805	      0.72888864	    -11.73508108	     14.83325042	     37.36231031
      0.98333330	     -0.25377807	     -0.08470928	     -1.26372864	     -2.52442074	      1.13835243	      0.18534733	     -7.94466267	      4.63230226	      3.40217786	      0.20293800	      0.00354194	     -4.30354290	     -7.61725328	     -7.49999987	     25.39470658	     -1.03815874	     -1.86765767	     49.63450067	      0.86628546	     -9.84754303	    -31.41314406	     -7.49999987	    -12.71606581	     -0.22026760	      8.12534885	     -0.03392027	     -0.00914736	     -0.00652031	    -30.02182058	      5.81013584	     18.05439256	     58.19503623	    108.34985721	     -0.02968680	     -0.00816369	     -0.00669881	     10.84742818	      0.88583658	    -11.99484291	     13.24342232	     37.31049960
      1.00000000	     -0.94075163	      0.07024581	     -1.58939501	     -2.50999101	      1.13827237	      0.18606456	     -7.89926618	      4.23967449	      2.62577225	      0.16687404	      0.00291250	     -2.08026812	     -5.42828260	     -7.49999987	     27.64317260	     -0.75587317	     -1.31082233	     46.20106807	      0.80636076	    -13.39054489	    -32.51212196	     -7.49999987	    -10.68065686	     -0.28671584	      9.52841949	     -0.02414151	     -0.00583665	     -0.00593451	    -17.38364926	      5.80668595	      4.98323797	     56.36300744	    108.45215704	     -0.01461331	     -0.00627106	     -0.00697953	      8.37981617	      0.78583060	     -9.51789035	     11.74234667	     37.35925577
      1.01666670	     -1.65945191	      0.26868554	     -2.21304611	     -2.49415825	      1.13780043	      0.18720969	     -7.73197149	      3.78217451	      2.79916956	      0.13787245	      0.00240633	     -0.29772437	     -4.51101343	     -7.49999987	     29.24119110	     -0.65722360	     -1.09925828	     42.02669369	      0.73350418	    -16.38054640	    -32.20331439	     -7.49999987	     -8.45568057	     -0.31561411	     11.08735598	     -0.00628782	     -0.00634291	     -0.00551511	    -17.04325868	      5.98441021	      3.63529166	     57.54528542	    108.17879567	      0.00114004	     -0.00609442	     -0.00736196	      8.24211055	      0.65282035	     -9.87476250	     10.19056214	     37.35174243
      1.03333330	     -1.82188126	      0.07645240	     -2.44188872	     -2.47289788	      1.13714571	      0.18562137	     -8.19331195	      3.68969082	      1.54860495	      0.12265415	      0.00214072	      2.58679294	     -0.92303226	     -7.49999987	     29.84269595	     -0.58018522	      0.02433281	     37.64275825	      0.65699007	    -20.21439388	    -33.00767537	     -7.49999987	     -7.73837799	      0.11519175	     12.68515833	     -0.00446183	     -0.00588626	     -0.00531028	    -13.18987891	      6.83858600	     -1.00010381	     56.82307474	    108.21728051	      0.00786065	     -0.00779631	     -0.00773232	     10.11294286	      0.47420165	    -10.90513352	      8.53694094	     38.04309253
      1.05000000	     -1.58117722	     -0.05715867	     -2.86811050	     -2.44753777	      1.13718183	      0.18332545	     -9.04997700	      3.48138393	      1.36416470	      0.10740297	      0.00187454	      5.05994446	      0.80632729	     -7.49999987	     29.46271360	     -0.56958360	      0.98390043	     32.93872805	      0.57488926	    -23.77610363	    -33.10864578	     -7.49999987	     -8.62720693	      0.18519629	     13.56655860	     -0.01134324	     -0.00695025	     -0.00530739	    -11.63809862	      7.56094374	     -2.51092568	     57.75492978	    108.35077112	      0.00064982	     -0.01042830	     -0.00794128	     11.99977869	      0.39914417	    -13.39233176	      7.52025349	     38.60353662
      1.06666670	     -1.07280369	     -0.25294462	     -3.08638342	     -2.42232668	      1.13876450	      0.18019641	    -10.37806813	      3.33171435	      1.93852860	      0.09757176	      0.00170295	      7.02678218	      0.56859160	     -7.49999987	     28.57066001	     -0.55735871	      2.16714524	     28.43743355	      0.49632685	    -26.74363229	    -32.65568805	     -7.49999987	    -10.30249987	      0.04381474	     14.29571356	     -0.02596139	     -0.00959885	     -0.00522773	    -12.10664840	      7.85935419	     -2.38030021	     58.64512366	    108.52831720	     -0.01333604	     -0.01384312	     -0.00804746	     12.31356175	      0.36087543	    -14.09678366	      6.20414495	     38.60355585
      1.08333330	     -0.36813691	     -0.57380912	     -3.05384381	     -2.40374361	      1.13967436	      0.17646814	    -12.13203153	      3.33976421	      1.83955383	      0.09254286	      0.00161518	      9.53018148	      1.64310360	     -7.49999987	     27.31792450	     -0.55137779	      3.75111993	     24.26954535	      0.42358347	    -29.83178676	    -32.72807310	     -7.49999987	    -11.65415445	      0.28559205	     16.08658560	     -0.03329075	     -0.01098926	     -0.00526135	    -19.66774603	      7.80582427	      2.67705918	     60.41333779	    110.00637065	     -0.01613780	     -0.01563716	     -0.00797164	     18.37649499	      0.37455962	    -17.50547352	      5.89743312	     40.46194282
      1.10000000	      0.55709605	     -0.97961510	     -2.86858738	     -2.38327307	      1.14049734	      0.17320819	    -14.22169929	      3.42253378	      2.88155564	      0.09107729	      0.00158960	     11.41698734	      0.35049357	     -7.49999987	     25.64501831	     -0.57540753	      5.53925361	     20.35078675	      0.35518823	    -32.34244738	    -32.43945063	     -7.49999987	    -13.11410218	      0.66491588	     16.24860966	     -0.03721451	     -0.01231696	     -0.00532144	    -20.74379733	      8.06905905	      3.43034250	     61.00487500	    110.49531989	     -0.02256989	     -0.01661155	     -0.00795606	     18.78674736	      0.37036157	    -17.74432968	      5.40466754	     40.07164765
      1.11666670	      0.87970015	     -0.83084050	     -2.52873439	     -2.36523358	      1.13670353	      0.17206477	    -16.07023096	      3.06286427	      3.52472521	      0.09624227	      0.00167974	     13.35445389	     -0.35230609	     -7.49999987	     24.53217537	     -0.05172830	      6.85640169	     17.15444491	      0.29940154	    -34.05451426	    -31.72532518	     -7.49999987	    -13.43781913	      0.52154430	     16.02043999	     -0.03805395	     -0.01111987	     -0.00550745	    -21.27554119	      7.99894193	      3.52769410	     61.05327549	    110.82319423	     -0.02413831	     -0.01610325	     -0.00785374	     18.89049963	      0.38669143	    -17.84066699	      4.67662512	     39.90683688
      1.13333330	      1.30566265	     -0.49411892	     -1.85615708	     -2.34527843	      1.13183497	      0.17081430	    -18.46037809	      2.72347932	      4.18187701	      0.11297035	      0.00197170	     15.48705717	     -1.31347228	     -7.49999987	     23.45736537	      0.78653131	      8.27339813	     14.83417689	      0.25890523	    -35.27579868	    -31.76259156	     -7.49999987	    -14.00416493	      0.07476000	     15.47518282	     -0.03849604	     -0.00971521	     -0.00577248	    -21.86049147	      7.72574387	      3.74063969	     60.98426907	    111.11335986	     -0.02437430	     -0.01514101	     -0.00755423	     18.93250899	      0.43765749	    -17.75642496	      4.48610217	     39.77983455
